<?xml version="1.0" encoding="iso-8859-1"?>
<!-- Uploaded to: SVG Repo, www.svgrepo.com, Generator: SVG Repo Mixer Tools -->
<svg fill="#000000" height="800px" width="800px" version="1.1" id="Layer_1" xmlns="http://www.w3.org/2000/svg" xmlns:xlink="http://www.w3.org/1999/xlink" 
	 viewBox="0 0 513.277 513.277" xml:space="preserve">
<g>
	<g>
		<path d="M512.615,264.062c-0.32-0.533-0.427-0.96-0.533-1.28l-95.147-186.88c-1.28-2.453-3.307-4.267-5.867-5.227l-82.667-29.973
			c-12.48-27.413-62.293-24.107-72.427-23.147c-10.133-0.96-59.947-4.373-72.427,23.147L100.88,70.675
			c-2.56,0.96-4.693,2.773-5.867,5.227L1.148,262.782c-2.667,5.227-0.533,11.627,4.8,14.293c0.32,0.213,0.64,0.32,1.067,0.427
			l69.227,26.133c4.8,1.813,10.24-0.107,12.907-4.48l28.267-47.36v233.92c0,5.867,4.8,10.667,10.667,10.667h256
			c5.867,0,10.667-4.8,10.667-10.667V251.902l28.267,47.36c2.667,4.373,8,6.293,12.8,4.587l70.507-26.133
			C511.868,275.688,514.641,269.502,512.615,264.062z M255.335,38.355c0.747,0.107,1.6,0.107,2.347,0
			c16.853-1.92,41.6-0.213,49.813,8l-50.987,50.987l-50.987-50.987C213.628,38.142,238.375,36.542,255.335,38.355z M319.975,63.528
			v64.747l-45.333-19.413L319.975,63.528z M191.975,63.528l45.333,45.333l-45.333,19.413V63.528z M436.668,280.382l-43.52-72.96
			c-2.987-5.013-9.6-6.72-14.613-3.733c-3.2,1.92-5.227,5.44-5.227,9.173v262.187H138.641v-262.08c0-5.867-4.8-10.667-10.667-10.667
			c-3.733,0-7.253,2.027-9.173,5.227l-43.52,72.96l-49.813-18.88l86.72-172.8l58.453-21.227v76.8c0,5.867,4.8,10.667,10.667,10.667
			c1.493,0,2.88-0.32,4.16-0.853l70.507-30.187l70.507,30.187c5.44,2.347,11.733-0.213,13.973-5.653
			c0.533-1.28,0.853-2.773,0.853-4.16v-76.8l58.453,21.227l87.787,172.693L436.668,280.382z"/>
	</g>
</g>
</svg>