<svg id="svg" fill="#000000" stroke="#000000" width="200px" height="200px" version="1.1" viewBox="144 144 512 512" xmlns="http://www.w3.org/2000/svg">
    <g id="IconSvg_bgCarrier" stroke-width="0"></g>
    <g id="IconSvg_tracerCarrier" stroke-linecap="round" stroke-linejoin="round" stroke="#CCCCCC"></g>
     <g id="IconSvg_iconCarrier">
      <defs xmlns="http://www.w3.org/2000/svg">
  <clipPath id="b">
   <path d="m156 579h432v72.902h-432z"></path>
  </clipPath>
  <clipPath id="a">
   <path d="m571 148.09h73v439.91h-73z"></path>
  </clipPath>
 </defs>
<path xmlns="http://www.w3.org/2000/svg" d="m217.51 368.72c1.5039 1.5039 4.1602 1.5039 5.6523 0l14.316-14.324v189.36c0 2.207 1.793 4 4 4h234.32c2.207 0 4-1.793 4-4v-46.941c0.0625-0.28125 0.16797-0.55078 0.16797-0.85547 0-0.30469-0.11328-0.56641-0.16797-0.85547l-0.003906-140.72 14.324 14.332c0.75 0.75 1.7656 1.168 2.832 1.168 1.0625 0 2.0781-0.42578 2.832-1.168l60.25-60.25c0.75-0.75 1.168-1.7656 1.168-2.832 0-1.0625-0.42578-2.0781-1.168-2.832l-81.406-81.387c-0.75-0.75-1.7656-1.168-2.832-1.168h-234.32c-1.0625 0-2.0781 0.42578-2.832 1.168l-81.387 81.395c-1.5586 1.5586-1.5586 4.0938 0 5.6523zm141.12-84.57c-21.281 0-38.594-17.312-38.594-38.586v-17.312h77.211v17.312c0 21.273-17.312 38.586-38.617 38.586zm-115.5-55.898h68.902v17.312c0 24.336 18.77 44.344 42.609 46.383v38.809c0 2.207 1.793 4 4 4s4-1.793 4-4v-38.801c23.832-2.0312 42.602-22.039 42.602-46.383v-17.312h68.895l77.402 77.395-54.598 54.598-17.152-17.152v-33.637c0-2.207-1.793-4-4-4s-4 1.793-4 4v182.52h-46.391c-2.207 0-4 1.793-4 4s1.793 4 4 4h46.391v39.801l-226.32-0.003906v-39.801l146.53-0.003906c2.207 0 4-1.793 4-4 0-2.207-1.793-4-4-4l-146.53 0.003906v-182.52c0-2.207-1.793-4-4-4-2.207 0-4 1.793-4 4v33.637l-17.145 17.152-54.598-54.598z"></path>
<g xmlns="http://www.w3.org/2000/svg" clip-path="url(#b)">
  <path d="m157.27 618.75 31.98 31.98c0.78516 0.78516 1.8086 1.168 2.832 1.168s2.0469-0.39062 2.832-1.168c1.5586-1.5586 1.5586-4.0938 0-5.6523l-25.16-25.16h404.54l-25.16 25.16c-1.5586 1.5586-1.5586 4.0938 0 5.6523 0.78516 0.78516 1.8086 1.168 2.832 1.168 1.0234 0 2.0469-0.39062 2.832-1.168l31.988-31.988c1.5586-1.5586 1.5586-4.0938 0-5.6523l-31.988-31.988c-1.5586-1.5586-4.0938-1.5586-5.6523 0-1.5586 1.5586-1.5586 4.0938 0 5.6523l25.16 25.16h-404.56l25.16-25.16c1.5586-1.5586 1.5586-4.0938 0-5.6523-1.5586-1.5586-4.0938-1.5586-5.6523 0l-31.98 31.98c-0.36719 0.36719-0.66406 0.81641-0.87109 1.3047-0.40625 0.97656-0.40625 2.0781 0 3.0547 0.20312 0.49609 0.49219 0.93359 0.86719 1.3086z"></path>
 </g>
<g xmlns="http://www.w3.org/2000/svg" clip-path="url(#a)">
  <path d="m637.09 186.9c0.78516 0.78516 1.8086 1.168 2.832 1.168 1.0234 0 2.0469-0.39062 2.832-1.168 1.5586-1.5586 1.5586-4.0938 0-5.6523l-31.98-31.98c-0.36719-0.36719-0.81641-0.66406-1.3047-0.87109-0.97656-0.40625-2.0781-0.40625-3.0547 0-0.49609 0.19922-0.9375 0.49609-1.3047 0.87109l-31.98 31.98c-1.5586 1.5586-1.5586 4.0938 0 5.6523s4.0938 1.5586 5.6523 0l25.152-25.164v412.54l-25.16-25.16c-1.5586-1.5586-4.0938-1.5586-5.6523 0-1.5586 1.5586-1.5586 4.0938 0 5.6523l31.98 31.98c0.36719 0.36719 0.81641 0.66406 1.3047 0.87109 0.48828 0.19922 1.0078 0.30469 1.5273 0.30469 0.51953 0 1.0391-0.10547 1.5273-0.30469 0.49609-0.19922 0.9375-0.49609 1.3047-0.87109l31.98-31.98c1.5586-1.5586 1.5586-4.0938 0-5.6523-1.5586-1.5586-4.0938-1.5586-5.6523 0l-25.164 25.156v-412.54z"></path>
 </g>

      </g>
      </svg>