<?xml version="1.0" encoding="UTF-8" standalone="no"?>
<!-- Created with Inkscape (http://www.inkscape.org/) -->

<svg
   width="56.84914mm"
   height="42.193935mm"
   viewBox="0 0 56.84914 42.193935"
   version="1.1"
   id="svg1"
   xml:space="preserve"
   inkscape:version="1.4.2 (f4327f4, 2025-05-13)"
   sodipodi:docname="shoe_size.svg"
   xmlns:inkscape="http://www.inkscape.org/namespaces/inkscape"
   xmlns:sodipodi="http://sodipodi.sourceforge.net/DTD/sodipodi-0.dtd"
   xmlns="http://www.w3.org/2000/svg"
   xmlns:svg="http://www.w3.org/2000/svg"><sodipodi:namedview
     id="namedview1"
     pagecolor="#ffffff"
     bordercolor="#000000"
     borderopacity="0.25"
     inkscape:showpageshadow="2"
     inkscape:pageopacity="0.0"
     inkscape:pagecheckerboard="0"
     inkscape:deskcolor="#d1d1d1"
     inkscape:document-units="mm"
     inkscape:zoom="0.61694716"
     inkscape:cx="-159.65711"
     inkscape:cy="425.48214"
     inkscape:window-width="1920"
     inkscape:window-height="1009"
     inkscape:window-x="-8"
     inkscape:window-y="-8"
     inkscape:window-maximized="1"
     inkscape:current-layer="layer1"><inkscape:page
       x="-1.2686972e-13"
       y="0"
       width="56.849136"
       height="42.193935"
       id="page2"
       margin="0"
       bleed="0" /></sodipodi:namedview><defs
     id="defs1"><linearGradient
       id="swatch10"
       inkscape:swatch="solid"><stop
         style="stop-color:#000000;stop-opacity:1;"
         offset="0"
         id="stop10" /></linearGradient><linearGradient
       id="swatch1"
       inkscape:swatch="solid"><stop
         style="stop-color:#000000;stop-opacity:0.95094341;"
         offset="0"
         id="stop1" /></linearGradient></defs><g
     inkscape:label="Слой 1"
     inkscape:groupmode="layer"
     id="layer1"
     transform="translate(-115.40107,-163.57186)"><path
       id="path21"
       style="fill:none;stroke:#000000;stroke-width:0.8;stroke-dasharray:none;stroke-opacity:1"
       d="m 135.68026,175.21569 0.0536,14.23276 m -2.11749,-20.79966 c 0,0 -0.2389,3.56412 0.40206,5.0391 0.29225,0.67253 0.87599,1.46163 1.60822,1.501 0.71373,0.0384 1.38915,-0.65063 1.71544,-1.28657 0.78328,-1.52659 0.64329,-5.28033 0.64329,-5.28033 m 30.79634,36.83936 2.82224,-2.40544 -2.90558,-2.10875 m -45.28851,2.21705 47.9893,-0.10584 m -44.98075,2.16585 -3.04819,-2.08647 3.02028,-2.21879 m -10.59338,-7.33351 2.43641,3.2116 2.57028,-3.26793 m -2.67997,-29.30294 0.1072,32.43247 m -2.51953,-29.45725 2.43913,-3.00201 2.57315,3.05561 m 26.69648,6.21846 c 0,0 -2.08283,0.72355 -2.57316,1.60822 -0.36382,0.65642 -0.19534,1.52687 0,2.25151 0.46268,1.71633 1.79267,3.07015 2.68037,4.61023 0.71944,1.24816 2.11932,2.31208 2.14429,3.75252 0.0133,0.76722 -0.54565,1.47886 -1.07214,2.03708 -1.66112,1.76121 -6.70093,3.91334 -6.70093,3.91334 m 17.4224,-6.05763 -0.21443,7.08155 m -34.90333,-3.22182 c 0,0 8.41803,-0.4782 12.60266,-0.10722 0.57951,0.0514 1.18585,0.0808 1.71544,0.32165 0.78752,0.35814 1.24547,1.25921 2.03708,1.60821 1.82248,0.8035 3.92228,0.70366 5.89681,0.96494 2.81324,0.37226 5.63254,0.90123 8.46997,0.85772 2.45111,-0.0376 4.89986,-0.42301 7.2906,-0.96494 2.93188,-0.66459 8.57718,-2.78758 8.57718,-2.78758 m -44.88888,-11.08102 c 3.54473,0.44691 5.3898,1.09566 6.01626,2.1378 0,0 1.11254,1.49367 1.41788,2.35872 0.37723,1.06874 0.31427,2.24485 0.46565,3.36806 0.14667,1.08825 0.42886,3.26624 0.42886,3.26624 m -7.96115,-22.48861 v 5.98544 l -0.26024,5.46496 c 0,0 -0.87989,1.52061 -1.30118,2.73248 -0.42129,1.21187 -1.00603,2.99733 -1.04095,4.55414 -0.0217,0.9696 0.43338,1.89667 0.52048,2.8626 0.0429,0.47517 0,1.4313 0,1.4313 l -0.26024,3.38307 -0.52047,3.77343 h 12.88169 c 0,0 0.66101,-1.26424 1.16966,-1.74585 0.41395,-0.39194 0.72027,-0.66923 1.47062,-0.87291 0.75035,-0.20368 1.98814,-0.17254 2.9548,0.0164 0.91693,0.17922 1.85448,0.48101 2.60237,1.04095 0.61817,0.46282 1.4313,1.82165 1.4313,1.82165 h 13.66241 c 0,0 8.43699,-0.3285 10.7998,-3.25295 1.01185,-1.25237 0.66729,-3.22831 0.39036,-4.81437 -0.0901,-0.51626 -0.37391,-0.98621 -0.65059,-1.4313 -0.32545,-0.52353 -0.62716,-1.14118 -1.17107,-1.4313 -0.80729,-0.43061 -2.73248,-0.26024 -2.73248,-0.26024 0,0 -3.92226,0.49699 -5.7252,-0.13012 0,0 -2.04696,-0.57075 -2.99272,-1.04094 -1.40032,-0.69618 -2.70478,-1.59811 -3.90354,-2.60237 -1.1052,-0.92588 -2.09996,-1.99071 -2.99272,-3.12283 -0.89397,-1.13366 -1.64759,-2.37761 -2.34212,-3.64331 -0.59749,-1.08885 -1.56142,-3.38307 -1.56142,-3.38307 0,0 -0.86027,-2.66852 -1.17107,-4.03366 -0.1757,-0.77173 -0.39035,-2.34213 -0.39035,-2.34213 0,0 -1.94361,1.15471 -2.99272,1.56142 -1.42233,0.55139 -2.91131,0.97424 -4.42402,1.17106 -1.03224,0.13431 -2.08223,0.0267 -3.12283,0 -1.6932,-0.0434 -3.42657,0.13064 -5.07461,-0.26024 -1.15266,-0.27338 -3.25295,-1.43131 -3.25295,-1.43131 z"
       sodipodi:nodetypes="cccsssccccccccccccccccccsssssccccsssssscccssccccsccccccssssccssssccsssscscsscsc" /></g></svg>
