<?xml version="1.0" encoding="iso-8859-1"?>
<!-- Uploaded to: SVG Repo, www.svgrepo.com, Generator: SVG Repo Mixer Tools -->
<svg fill="#000000" height="800px" width="800px" version="1.1" id="Layer_1" xmlns="http://www.w3.org/2000/svg" xmlns:xlink="http://www.w3.org/1999/xlink" 
	 viewBox="0 0 512.001 512.001" xml:space="preserve">
<g transform="translate(0 -1)">
	<g>
		<g>
			<path d="M76.801,261.23c27.29,0,48.836-18.202,51.234-43.281v-12.245c-33.86-7.953-50.304-35.729-51.294-37.453
				c-1.246-2.202-3.422-3.746-5.922-4.198c-3.14-0.572-7.97-0.435-13.201,3.328c-11.136,8.013-20.864,33.161-28.672,61.474
				l11.989,18.833C49.622,257.049,60.724,261.23,76.801,261.23z"/>
			<path d="M418.134,286.83c12.612,0,22.955-6.289,35.575-21.675l2.065-3.712c-12.322-3.541-24.951-5.538-35.9-7.245
				c-6.758-1.05-13.141-2.039-18.807-3.26c-4.736-1.024-14.541-5.052-34.133-16.888v1.775
				C368.462,263.261,391.92,286.83,418.134,286.83z"/>
			<path d="M472.048,267.289l-3.789,6.818c-0.239,0.444-0.521,0.845-0.836,1.237c-10.795,13.295-26.155,28.552-49.289,28.552
				c-35.473,0-66.005-30.157-68.224-67.277l0.99-0.99c9.984-9.984,9.984-26.223,0-36.207s-26.214-9.984-36.198,0l-0.034,0.034
				c-4.13-2.901-8.209-5.803-12.288-8.713c3.089-4.318,4.821-9.438,4.821-14.848c0-6.844-2.662-13.278-7.492-18.099
				c-9.677-9.668-26.539-9.668-36.207,0l-2.637,2.637c-12.595-9.421-23.262-17.544-30.114-22.81
				c-8.32-6.383-20.19-5.623-27.605,1.809l-17.527,17.519c-8.542,8.542-8.542,22.451,0,30.993l4.77,4.77
				c1.195,1.186,1.075,2.62,0.964,3.183c-0.145,0.742-0.572,1.741-1.758,2.253c-16.811,7.219-31.616,9.89-44.527,9.668v10.94
				c-3.294,34.842-31.991,59.537-68.267,59.537c-21.026,0-37.06-6.443-49.007-19.686c-0.316-0.358-0.606-0.734-0.862-1.126
				l-3.746-5.897c-7.552,32.384-12.544,64.102-14.293,75.887l-8.431,24.559c-0.64,1.86-0.614,3.908,0.077,5.76
				c2.022,5.367,13.559,22.904,77.457,22.904l374.801-0.017c20.523-1.28,59.298-13.628,59.204-51.174v-0.009v-0.009v-0.017v-0.008
				C511.984,294.92,494.158,277.205,472.048,267.289z M308.66,229.597l18.108-18.108c3.328-3.319,8.738-3.319,12.066,0
				c3.328,3.337,3.328,8.738,0,12.075l-0.41,0.41h-0.008l-17.681,17.69c-3.226,3.217-8.849,3.217-12.066,0
				c-1.613-1.604-2.5-3.755-2.5-6.033C306.168,233.343,307.047,231.202,308.66,229.597z M257.46,187.963l18.108-18.099
				c3.217-3.234,8.841-3.243,12.075,0.009c1.604,1.604,2.492,3.738,2.492,6.025c0,2.278-0.887,4.42-2.5,6.033l-4.13,4.13
				l-13.969,13.969c-1.161,1.161-2.594,1.766-4.079,2.116c-2.406,0.572-4.924,0.094-6.989-1.451
				c-0.324-0.239-0.708-0.367-0.998-0.666C254.141,196.701,254.141,191.291,257.46,187.963z M179.781,292.309l16.811-59.017
				c1.297-4.54,6.025-7.185,10.547-5.871c4.531,1.289,7.159,6.016,5.871,10.547l-9.088,31.898l46.455-40.661
				c2.85-2.483,7.006-2.807,10.189-0.785c3.2,2.031,4.676,5.914,3.644,9.549l-17.024,59.767c-1.075,3.755-4.489,6.195-8.209,6.195
				c-0.768,0-1.562-0.102-2.338-0.324c-4.531-1.297-7.159-6.016-5.871-10.556l9.114-31.983l-45.807,40.09
				c-0.998,1.084-2.261,1.903-3.703,2.364c-2.714,0.879-5.692,0.324-7.927-1.459c-1.971-1.579-3.166-3.968-3.226-6.494
				C179.201,294.442,179.388,293.333,179.781,292.309z M452.267,363.63H77.995c-40.201,0-54.963-7.228-59.776-10.76l5.086-14.839
				h470.477C487.083,361.002,453.36,363.536,452.267,363.63z"/>
		</g>
	</g>
</g>
</svg>