<?xml version="1.0" encoding="UTF-8" standalone="no"?>
<!-- Created with Inkscape (http://www.inkscape.org/) -->

<svg
   width="78.610817mm"
   height="122.37555mm"
   viewBox="0 0 78.610817 122.37555"
   version="1.1"
   id="svg1"
   xml:space="preserve"
   xmlns="http://www.w3.org/2000/svg"
   xmlns:svg="http://www.w3.org/2000/svg"><defs
     id="defs1" /><g
     id="layer1"
     transform="translate(-50.746732,-71.364341)"><path
       style="opacity:1;fill:#000000;fill-opacity:0;stroke:#000000;stroke-width:0.316329;stroke-opacity:1"
       d="m 111.2772,168.35898 0.23813,10.16215 -0.47626,4.06485 -2.61965,3.45511 c 0,0 -1.90517,2.23565 -1.90517,3.25185 0,1.01627 0.23813,3.45519 0.23813,3.45519 l -1.6075,0.50779 -2.44102,-2.33728 -2.857779,2.1848 -2.381479,-2.1848 -4.346203,1.1686 -0.416737,-4.82699 -1.309817,-1.67677 -1.786108,1.93083 0.178601,4.57293 -1.369359,0.35592 -2.917311,-1.62592 -2.14333,2.74374 -0.595407,-0.15264 -2.024256,-2.4897 -3.215001,1.9816 -1.071663,0.053 -0.05974,-3.60753 -2.083798,-3.09951 -0.952595,-3.20107 -2.262405,-2.69297 -0.535804,-11.02594 -0.65494,-2.94702 -2.560088,0.96542 -2.083798,3.20107 -1.012128,-1.0162 -1.786115,0.60981 -1.001149,-0.0794 0.227149,-1.74962 -1.696801,-0.40654 0.334679,-1.23994 1.421641,-0.74204 -2.05403,-1.85458 0.684673,-1.1433 1.250277,0.10204 0.178601,-2.7946 3.631757,-3.40434 3.393608,-4.06485 -6.846757,-3.65839 -10.716663,-9.80647 c 0,0 -0.535804,-15.24319 -0.297669,-15.29398 0.238135,-0.0529 3.453142,-6.24972 3.453142,-6.24972 l 7.203981,-9.55243 2.798236,-1.87996 0.119068,-22.509193 2.035703,-6.328385 5.168276,-4.087818 7.023505,3.6169 2.085658,6.037158 2.321947,6.8086 1.415681,9.617107 c 0,0 2.401675,-0.451876 2.433796,0.159441 0.02403,0.45414 -0.09586,-3.459876 0.37739,-6.75744 0.624865,-4.353883 2.097793,-8.54462 2.097793,-8.54462 l 2.115548,-5.249096 2.640703,-4.509167 c 0,0 2.37806,-4.116232 8.431567,-2.789619 5.42125,1.188026 8.85845,14.722405 9.07501,24.129519 l -0.52565,7.956273 11.5394,11.06931 3.5631,6.11598 2.85776,10.00966 -0.59533,7.1135 -5.71555,8.02814 -6.72769,5.18268 2.91732,5.23352 2.85778,4.72536 -0.11907,1.72756 0.65494,0.68613 0.0645,0.94297 -0.95781,0.80997 c 0,0 0.85182,0.38009 1.10858,0.80937 0.16027,0.26825 -0.23841,0.61736 -0.21555,0.71484 0.0597,0.2539 -0.95259,1.32103 -0.95259,1.32103 l 0.0632,0.81708 -0.30124,0.60603 -1.14704,0.37631 -1.29398,-0.68085 -0.74894,1.3712 -1.24554,0.10204 -2.35172,-4.26804 -1.54796,-0.40653 z"
       id="path1" /></g></svg>
